<svg width="21" height="21" viewBox="0 0 21 21" fill="none" xmlns="http://www.w3.org/2000/svg">
<path d="M10.5 5.25C7.602 5.25 5.25 7.602 5.25 10.5C5.25 13.398 7.602 15.75 10.5 15.75C13.398 15.75 15.75 13.398 15.75 10.5C15.75 7.602 13.398 5.25 10.5 5.25ZM10.5 0C4.704 0 0 4.704 0 10.5C0 16.296 4.704 21 10.5 21C16.296 21 21 16.296 21 10.5C21 4.704 16.296 0 10.5 0ZM10.5 18.9C5.859 18.9 2.1 15.141 2.1 10.5C2.1 5.859 5.859 2.1 10.5 2.1C15.141 2.1 18.9 5.859 18.9 10.5C18.9 15.141 15.141 18.9 10.5 18.9Z" fill="#DBFD00"/>
</svg>
