<svg width="73" height="17" viewBox="0 0 73 17" fill="none" xmlns="http://www.w3.org/2000/svg">
<path d="M2.91803 14.1362C2.18486 14.1362 1.57877 13.9607 1.09976 13.6097C0.63053 13.249 0.263943 12.6982 0 11.9573L1.55433 11.3138C1.70096 11.7233 1.87693 12.045 2.08222 12.279C2.2875 12.5032 2.52701 12.6153 2.80073 12.6153C3.00601 12.6153 3.15754 12.5715 3.25529 12.4837C3.36283 12.3862 3.41659 12.2546 3.41659 12.0889C3.41659 11.8549 3.33839 11.6453 3.18198 11.4601C3.02557 11.2748 2.74696 11.0165 2.34616 10.685L1.55433 10.0123C1.14375 9.66136 0.81138 9.31527 0.557213 8.97405C0.312821 8.62308 0.190625 8.18925 0.190625 7.67255C0.190625 7.21434 0.303045 6.81462 0.527886 6.47341C0.762501 6.13219 1.07043 5.86896 1.45169 5.68373C1.84271 5.48875 2.26307 5.39126 2.71275 5.39126C3.40682 5.39126 3.97381 5.59111 4.41371 5.99082C4.86339 6.38079 5.16644 6.91212 5.32285 7.5848L3.88582 8.22824C3.82717 8.01376 3.74897 7.81391 3.65121 7.62867C3.55345 7.43369 3.42637 7.27283 3.26996 7.14609C3.12332 7.01936 2.95714 6.95599 2.7714 6.95599C2.59544 6.95599 2.45369 7.00961 2.34616 7.11685C2.23863 7.22409 2.18486 7.36057 2.18486 7.52631C2.18486 7.70179 2.27284 7.88703 2.4488 8.08201C2.63454 8.27699 2.88871 8.51097 3.2113 8.78394L4.00313 9.48588C4.23775 9.69061 4.46748 9.90996 4.69232 10.1439C4.91716 10.3682 5.10289 10.6216 5.24953 10.9044C5.39616 11.1773 5.46948 11.4942 5.46948 11.8549C5.46948 12.3424 5.35217 12.7567 5.11756 13.0979C4.88294 13.4391 4.57012 13.6975 4.17909 13.873C3.79784 14.0485 3.37749 14.1362 2.91803 14.1362Z" fill="white"/>
<path d="M6.86866 17V4.83312H9.26736V5.51434C9.5533 5.2503 9.86042 5.04435 10.1887 4.89649C10.5276 4.74863 10.8665 4.6747 11.2054 4.6747C11.576 4.6747 11.8885 4.75919 12.1426 4.92817C12.3968 5.0866 12.6033 5.30311 12.7622 5.57771C12.921 5.85231 13.0322 6.15859 13.0958 6.49656C13.1593 6.83453 13.1911 7.17778 13.1911 7.52631V11.1067C13.1911 11.6981 13.1169 12.2209 12.9687 12.6751C12.8204 13.1292 12.5927 13.4883 12.2856 13.7523C11.9891 14.0164 11.6025 14.1484 11.126 14.1484C10.7977 14.1484 10.4747 14.0692 10.1569 13.9108C9.84983 13.7523 9.5533 13.5464 9.26736 13.2929V17H6.86866ZM10.0616 12.5483C10.2629 12.5483 10.4111 12.4902 10.5064 12.3741C10.6123 12.2473 10.6865 12.0836 10.7288 11.8829C10.7712 11.6823 10.7924 11.4605 10.7924 11.2176V7.38373C10.7924 7.16194 10.7712 6.96127 10.7288 6.78172C10.6865 6.60217 10.6123 6.45959 10.5064 6.35398C10.4005 6.2378 10.2576 6.17971 10.0775 6.17971C9.92926 6.17971 9.78629 6.21668 9.64861 6.29061C9.51094 6.35398 9.38386 6.43847 9.26736 6.54409V12.279C9.39445 12.3635 9.52153 12.4321 9.64861 12.4849C9.7757 12.5272 9.91337 12.5483 10.0616 12.5483Z" fill="white"/>
<path d="M18.1992 14.1606C17.4921 14.1606 16.8876 14.0355 16.3858 13.7852C15.884 13.5236 15.5019 13.1483 15.2396 12.6592C14.9887 12.1701 14.8632 11.5616 14.8632 10.8337V7.28502C14.8632 6.55708 14.9887 5.94858 15.2396 5.4595C15.5019 4.97042 15.884 4.60076 16.3858 4.35054C16.8876 4.08894 17.4921 3.95814 18.1992 3.95814C18.9063 3.95814 19.5108 4.08894 20.0126 4.35054C20.5144 4.60076 20.8965 4.97042 21.1588 5.4595C21.4211 5.94858 21.5522 6.55708 21.5522 7.28502V10.8337C21.5522 11.5616 21.4211 12.1701 21.1588 12.6592C20.8965 13.1483 20.5144 13.5236 20.0126 13.7852C19.5108 14.0355 18.9063 14.1606 18.1992 14.1606ZM18.2163 12.4204C18.433 12.4204 18.5984 12.3635 18.7124 12.2498C18.8265 12.1246 18.9006 11.9597 18.9348 11.755C18.969 11.5389 18.9861 11.2943 18.9861 11.0214V7.11441C18.9861 6.83006 18.969 6.58552 18.9348 6.38079C18.9006 6.17606 18.8265 6.01114 18.7124 5.88602C18.5984 5.76091 18.433 5.69835 18.2163 5.69835C17.9996 5.69835 17.8342 5.76091 17.7202 5.88602C17.6061 6.01114 17.5263 6.17606 17.4807 6.38079C17.4465 6.58552 17.4294 6.83006 17.4294 7.11441V11.0214C17.4294 11.2943 17.4465 11.5389 17.4807 11.755C17.5263 11.9597 17.6061 12.1246 17.7202 12.2498C17.8342 12.3635 17.9996 12.4204 18.2163 12.4204Z" fill="white"/>
<path d="M23.4974 13.99V4.12875H26.0806V5.71541C26.4114 5.13534 26.7364 4.70882 27.0557 4.43584C27.3865 4.15149 27.7742 4.00932 28.219 4.00932C28.2989 4.00932 28.3673 4.01501 28.4243 4.02638C28.4928 4.02638 28.5555 4.03775 28.6125 4.0605V6.65376C28.4871 6.59689 28.3445 6.5514 28.1848 6.51728C28.0252 6.47178 27.8598 6.44903 27.6887 6.44903C27.3694 6.44903 27.0785 6.53434 26.8162 6.70495C26.5539 6.86418 26.3087 7.09735 26.0806 7.40445V13.99H23.4974Z" fill="white"/>
<path d="M33.0967 14.0923C32.4124 14.0923 31.8763 13.99 31.4886 13.7852C31.1008 13.5691 30.8328 13.262 30.6845 12.8639C30.5363 12.4659 30.4621 11.9825 30.4621 11.4138V5.81778H29.487V4.12875H30.4621V1.14308H33.0796V4.12875H34.5166V5.81778H33.0796V11.1749C33.0796 11.482 33.1537 11.7038 33.3019 11.8403C33.4616 11.9654 33.6783 12.028 33.952 12.028C34.0889 12.028 34.22 12.0223 34.3455 12.0109C34.471 11.9881 34.585 11.9711 34.6876 11.9597V13.9729C34.528 13.9957 34.2999 14.0184 34.0034 14.0411C33.7068 14.0753 33.4046 14.0923 33.0967 14.0923Z" fill="white"/>
<path d="M40.0551 14.1947C39.1199 14.1947 38.3786 14.0013 37.8311 13.6146C37.2837 13.2165 36.8902 12.6592 36.6507 11.9427C36.4226 11.2147 36.3086 10.373 36.3086 9.41764V4.79412C36.3086 3.80459 36.4283 2.95154 36.6678 2.23498C36.9073 1.51842 37.3236 0.966787 37.9167 0.580072C38.5211 0.193357 39.3366 0 40.363 0C41.3553 0 42.1365 0.164923 42.7067 0.494768C43.2884 0.824612 43.7047 1.29094 43.9556 1.89376C44.2065 2.49658 44.3319 3.21314 44.3319 4.04344V4.84531H41.5777V3.87283C41.5777 3.50887 41.5548 3.19039 41.5092 2.91742C41.4636 2.63307 41.3553 2.41128 41.1842 2.25204C41.0245 2.09281 40.7622 2.01319 40.3972 2.01319C40.0209 2.01319 39.7472 2.10987 39.5761 2.30323C39.405 2.49658 39.2967 2.74681 39.251 3.05391C39.2054 3.34963 39.1826 3.6681 39.1826 4.00932V10.1342C39.1826 10.5209 39.2168 10.8678 39.2853 11.1749C39.3537 11.482 39.4791 11.7209 39.6616 11.8915C39.8555 12.0621 40.1292 12.1474 40.4828 12.1474C40.8363 12.1474 41.1101 12.0564 41.3039 11.8744C41.4978 11.6924 41.629 11.4479 41.6974 11.1408C41.7772 10.8223 41.8172 10.464 41.8172 10.0659V8.59871H40.4657V6.89262H44.3662V13.99H42.5186L42.3475 12.7445C42.165 13.1654 41.8913 13.5123 41.5263 13.7852C41.1614 14.0582 40.671 14.1947 40.0551 14.1947Z" fill="#CAFD00"/>
<path d="M46.492 13.99V4.12875H49.0752V5.11828C49.4288 4.76569 49.7995 4.48703 50.1872 4.28229C50.5864 4.06619 51.0084 3.95814 51.4532 3.95814C51.8637 3.95814 52.1945 4.0605 52.4454 4.26523C52.7077 4.46996 52.9016 4.74294 53.027 5.08416C53.1525 5.414 53.2152 5.78934 53.2152 6.21018V13.99H50.6491V6.6367C50.6491 6.36373 50.6035 6.159 50.5123 6.02251C50.4324 5.88602 50.2728 5.81778 50.0333 5.81778C49.8964 5.81778 49.7424 5.85759 49.5714 5.9372C49.4117 6.00545 49.2463 6.10213 49.0752 6.22724V13.99H46.492Z" fill="#CAFD00"/>
<path d="M55.3051 13.99V4.12875H57.8884V13.99H55.3051ZM55.288 2.50796V0.580072H57.8884V2.50796H55.288Z" fill="#CAFD00"/>
<path d="M61.5001 14.1484C61.1294 14.1484 60.817 14.0533 60.5629 13.8632C60.3193 13.6731 60.1392 13.4196 60.0227 13.1028C59.9063 12.786 59.848 12.4374 59.848 12.0572V4.83312H62.2467V11.7087C62.2467 11.9622 62.2891 12.1575 62.3738 12.2948C62.4585 12.4216 62.6121 12.4849 62.8345 12.4849C62.9616 12.4849 63.0939 12.4533 63.2316 12.3899C63.3799 12.316 63.5281 12.2315 63.6764 12.1364V4.83312H66.0751V13.99H63.6764V13.1345C63.3587 13.4408 63.0145 13.689 62.6439 13.8791C62.2838 14.0586 61.9025 14.1484 61.5001 14.1484Z" fill="#CAFD00"/>
<path d="M70.4486 14.1362C69.7154 14.1362 69.1093 13.9607 68.6303 13.6097C68.161 13.249 67.7945 12.6982 67.5305 11.9573L69.0849 11.3138C69.2315 11.7233 69.4075 12.045 69.6127 12.279C69.818 12.5032 70.0575 12.6153 70.3313 12.6153C70.5365 12.6153 70.6881 12.5715 70.7858 12.4837C70.8933 12.3862 70.9471 12.2546 70.9471 12.0889C70.9471 11.8549 70.8689 11.6453 70.7125 11.4601C70.5561 11.2748 70.2775 11.0165 69.8767 10.685L69.0849 10.0123C68.6743 9.66136 68.3419 9.31527 68.0877 8.97405C67.8433 8.62308 67.7211 8.18925 67.7211 7.67255C67.7211 7.21434 67.8336 6.81462 68.0584 6.47341C68.293 6.13219 68.601 5.86896 68.9822 5.68373C69.3732 5.48875 69.7936 5.39126 70.2433 5.39126C70.9373 5.39126 71.5043 5.59111 71.9442 5.99082C72.3939 6.38079 72.697 6.91212 72.8534 7.5848L71.4163 8.22824C71.3577 8.01376 71.2795 7.81391 71.1817 7.62867C71.084 7.43369 70.9569 7.27283 70.8005 7.14609C70.6538 7.01936 70.4877 6.95599 70.3019 6.95599C70.126 6.95599 69.9842 7.00961 69.8767 7.11685C69.7691 7.22409 69.7154 7.36057 69.7154 7.52631C69.7154 7.70179 69.8034 7.88703 69.9793 8.08201C70.1651 8.27699 70.4192 8.51097 70.7418 8.78394L71.5336 9.48588C71.7683 9.69061 71.998 9.90996 72.2228 10.1439C72.4477 10.3682 72.6334 10.6216 72.78 10.9044C72.9267 11.1773 73 11.4942 73 11.8549C73 12.3424 72.8827 12.7567 72.6481 13.0979C72.4135 13.4391 72.1006 13.6975 71.7096 13.873C71.3284 14.0485 70.908 14.1362 70.4486 14.1362Z" fill="#CAFD00"/>
</svg>
