<svg width="67" height="34" viewBox="0 0 67 34" fill="none" xmlns="http://www.w3.org/2000/svg">
<path d="M67 33.5C67 29.1007 66.1335 24.7445 64.45 20.6801C62.7664 16.6157 60.2988 12.9227 57.1881 9.81192C54.0773 6.70116 50.3843 4.23357 46.3199 2.55004C42.2555 0.866503 37.8993 -1.92299e-07 33.5 0C29.1007 1.92299e-07 24.7445 0.866504 20.6801 2.55004C16.6157 4.23357 12.9227 6.70116 9.81192 9.81192C6.70116 12.9227 4.23357 16.6157 2.55003 20.6801C0.866502 24.7445 -3.84598e-07 29.1007 0 33.5L67 33.5Z" fill="#CAFD00"/>
<path d="M34.698 25.27C33.678 25.27 32.874 25.078 32.286 24.694C31.71 24.31 31.296 23.776 31.044 23.092C30.804 22.396 30.684 21.598 30.684 20.698V20.176H33.69C33.69 20.188 33.69 20.254 33.69 20.374C33.69 20.494 33.69 20.602 33.69 20.698C33.69 21.178 33.72 21.568 33.78 21.868C33.84 22.168 33.948 22.39 34.104 22.534C34.26 22.666 34.476 22.732 34.752 22.732C35.028 22.732 35.232 22.66 35.364 22.516C35.508 22.372 35.604 22.156 35.652 21.868C35.7 21.58 35.724 21.22 35.724 20.788C35.724 20.068 35.622 19.522 35.418 19.15C35.226 18.766 34.818 18.568 34.194 18.556C34.182 18.556 34.116 18.556 33.996 18.556C33.876 18.556 33.756 18.556 33.636 18.556V16.486C33.72 16.486 33.804 16.486 33.888 16.486C33.972 16.486 34.05 16.486 34.122 16.486C34.758 16.486 35.184 16.312 35.4 15.964C35.616 15.616 35.724 15.076 35.724 14.344C35.724 13.78 35.646 13.348 35.49 13.048C35.346 12.748 35.07 12.598 34.662 12.598C34.266 12.598 34.002 12.766 33.87 13.102C33.75 13.438 33.69 13.87 33.69 14.398C33.69 14.518 33.69 14.644 33.69 14.776C33.69 14.896 33.69 15.022 33.69 15.154H30.684V14.272C30.684 13.396 30.84 12.658 31.152 12.058C31.476 11.446 31.932 10.984 32.52 10.672C33.12 10.36 33.834 10.204 34.662 10.204C35.502 10.204 36.222 10.354 36.822 10.654C37.422 10.954 37.884 11.398 38.208 11.986C38.532 12.562 38.694 13.282 38.694 14.146C38.694 14.998 38.52 15.712 38.172 16.288C37.824 16.864 37.404 17.218 36.912 17.35C37.248 17.47 37.548 17.662 37.812 17.926C38.088 18.19 38.304 18.55 38.46 19.006C38.616 19.45 38.694 20.02 38.694 20.716C38.694 21.604 38.562 22.39 38.298 23.074C38.046 23.758 37.626 24.298 37.038 24.694C36.45 25.078 35.67 25.27 34.698 25.27Z" fill="#161616"/>
</svg>
