<svg width="67" height="34" viewBox="0 0 67 34" fill="none" xmlns="http://www.w3.org/2000/svg">
<path d="M67 33.5C67 29.1007 66.1335 24.7445 64.45 20.6801C62.7664 16.6157 60.2988 12.9227 57.1881 9.81192C54.0773 6.70116 50.3843 4.23357 46.3199 2.55004C42.2555 0.866503 37.8993 -1.92299e-07 33.5 0C29.1007 1.92299e-07 24.7445 0.866504 20.6801 2.55004C16.6157 4.23357 12.9227 6.70116 9.81192 9.81192C6.70116 12.9227 4.23357 16.6157 2.55003 20.6801C0.866502 24.7445 -3.84598e-07 29.1007 0 33.5L67 33.5Z" fill="#CAFD00"/>
<path d="M32.394 25V13.39C32.262 13.462 32.112 13.534 31.944 13.606C31.776 13.678 31.596 13.756 31.404 13.84C31.224 13.912 31.044 13.984 30.864 14.056C30.696 14.128 30.54 14.2 30.396 14.272V12.04C30.528 11.968 30.714 11.872 30.954 11.752C31.194 11.62 31.452 11.476 31.728 11.32C32.004 11.164 32.262 11.008 32.502 10.852C32.742 10.684 32.922 10.54 33.042 10.42H35.4V25H32.394Z" fill="#161616"/>
</svg>
