<svg width="67" height="67" viewBox="0 0 67 67" fill="none" xmlns="http://www.w3.org/2000/svg">
<path d="M67 33.5C67 29.1007 66.1335 24.7445 64.45 20.6801C62.7664 16.6157 60.2988 12.9227 57.1881 9.81192C54.0773 6.70116 50.3843 4.23357 46.3199 2.55004C42.2555 0.866503 37.8993 -1.92299e-07 33.5 0C29.1007 1.92299e-07 24.7445 0.866503 20.6801 2.55004C16.6157 4.23357 12.9227 6.70116 9.81192 9.81192C6.70116 12.9227 4.23357 16.6157 2.55003 20.6801C0.866502 24.7445 -3.84597e-07 29.1007 0 33.5L33.5 33.5H67Z" fill="#CAFD00"/>
<path d="M30.738 25V22.876L34.23 17.512C34.494 17.116 34.74 16.732 34.968 16.36C35.208 15.988 35.4 15.61 35.544 15.226C35.7 14.842 35.778 14.44 35.778 14.02C35.778 13.6 35.694 13.288 35.526 13.084C35.358 12.88 35.13 12.778 34.842 12.778C34.518 12.778 34.266 12.868 34.086 13.048C33.906 13.228 33.78 13.468 33.708 13.768C33.648 14.068 33.618 14.404 33.618 14.776V15.496H30.702V14.722C30.702 13.858 30.84 13.09 31.116 12.418C31.392 11.734 31.83 11.2 32.43 10.816C33.03 10.42 33.816 10.222 34.788 10.222C36.096 10.222 37.08 10.564 37.74 11.248C38.412 11.92 38.748 12.862 38.748 14.074C38.748 14.662 38.652 15.208 38.46 15.712C38.28 16.216 38.034 16.708 37.722 17.188C37.422 17.656 37.098 18.148 36.75 18.664L34.086 22.642H38.352V25H30.738Z" fill="#161616"/>
</svg>
