<svg width="50" height="45" viewBox="0 0 50 45" fill="none" xmlns="http://www.w3.org/2000/svg">
<path d="M46.8755 14.7188C45.1476 14.7188 43.7446 16.3939 43.7446 18.449C43.7446 20.512 45.1477 22.187 46.8755 22.187C48.597 22.187 50 20.5119 50 18.449C50 16.3938 48.5969 14.7188 46.8755 14.7188ZM43.2444 23.9242C43.2768 24.056 43.1729 24.1413 42.9715 24.3274L42.8482 24.4051L42.8935 24.5059C42.9195 24.5603 42.8741 24.661 42.7896 24.7076L42.6012 24.8239C42.5168 24.8703 42.4259 24.8626 42.3999 24.8006L42.361 24.7076L42.1271 24.8472L42.166 24.9402C42.192 25.0022 42.1401 25.0953 42.0556 25.1419L41.8672 25.2504C41.7763 25.2969 41.6853 25.2815 41.6594 25.2195L41.6269 25.1341C40.9059 25.5374 40.1004 25.9639 39.2689 26.4292L39.3143 26.5611C39.3403 26.6153 39.2884 26.7084 39.2039 26.7627L39.0155 26.8635C38.9311 26.91 38.8401 26.8946 38.8141 26.8326L38.7687 26.7085L38.4959 26.8635L38.5478 26.9876C38.5737 27.0575 38.5219 27.1504 38.4374 27.197L38.249 27.2979C38.1645 27.3444 38.0736 27.3366 38.0476 27.2669L38.0022 27.1428C37.619 27.3288 37.2098 27.3987 36.9109 26.7318C36.7811 26.4216 36.7746 25.7081 36.6771 25.3281C36.6252 25.1265 36.4303 25.0954 36.4303 25.0954C32.7667 24.2579 31.526 25.1886 29.1744 24.4983C28.4404 24.2811 28.0377 23.4668 27.1282 23.4591C25.147 23.3892 24.5558 23.4204 22.4058 23.3195C22.3149 23.6995 22.3019 23.7771 22.3019 23.7771L14.7407 23.7307L15.8905 24.4131L16.2673 28.3915C16.2673 28.3915 15.962 28.5001 15.871 28.5156C15.9425 29.3144 16.0139 30.3846 16.0529 31.3463C16.0853 32.2148 16.1244 33.1222 16.1179 33.7038C16.1112 33.8821 16.1113 34.3087 15.9035 34.774C15.7672 35.0843 15.5268 35.3402 15.3319 35.5108C15.2669 35.5727 14.9746 35.8055 14.6369 36.0459C14.2861 36.2863 13.8963 36.5345 13.6885 36.6586C13.7079 36.7672 13.7729 36.8757 13.7924 36.961C9.19342 39.6132 3.49658 40.5206 1.65174 44.7395C1.43737 45.228 0.683865 44.9721 0.664375 44.4448C0.657723 44.2044 0.65772 43.8089 0.671023 43.5995L0.599519 43.5916C0.540984 43.5916 0.495584 43.4907 0.502069 43.3822L0.508717 43.134C0.515369 43.0177 0.56726 42.9324 0.625629 42.9324L0.703616 42.9403C0.729558 42.6921 0.768632 42.4518 0.820515 42.2192L0.749011 42.1881C0.697128 42.1649 0.677506 42.0563 0.710099 41.9477L0.775121 41.7151C0.814033 41.6065 0.879057 41.5445 0.937592 41.5677L1.0091 41.591C1.33388 40.6759 1.97046 40.2726 2.26277 39.4117L2.21738 39.3885C2.15884 39.3653 2.13939 39.2566 2.17198 39.148L2.23699 38.9153C2.2759 38.8145 2.34741 38.7449 2.39946 38.7681L2.45135 38.784C2.49675 38.6599 2.5488 38.5203 2.60716 38.3885L2.54214 38.3342C2.49026 38.2955 2.49026 38.1869 2.54214 38.0938L2.65256 37.8844C2.70444 37.7913 2.78893 37.7448 2.83444 37.7835L2.86037 37.7994L2.8928 37.8074C2.9061 37.8074 2.91226 37.7995 2.92523 37.7915C2.95766 37.7528 2.99025 37.7138 3.02268 37.6829C3.32147 37.4037 3.69174 37.4502 3.99704 37.667C4.28286 37.8764 5.41313 38.6442 6.4979 37.4731C8.2907 35.5576 10.3888 32.9441 11.9674 32.8588C11.5387 31.7498 10.7982 29.4464 10.7138 28.5935L10.1811 28.4617C9.90827 27.756 9.2327 24.4832 9.04432 22.0248C9.04432 22.0248 8.82347 19.3726 9.03767 18.4419C8.91428 18.426 8.6934 18.6435 8.62845 18.6435C8.34263 17.7982 9.27802 10.6558 10.2069 8.57737L11.6295 7.90266C11.4802 7.87944 10.4538 7.82503 7.75157 7.56144C6.24454 9.15125 4.49723 10.8729 3.61372 11.8112C3.46439 11.943 3.21099 12.9589 3.21099 12.9589C3.21099 12.9589 2.76278 13.432 2.35354 13.7732C1.8014 14.2385 0.463288 14.5875 0.177431 14.0447C0.105926 13.9128 0.118893 13.8507 0.18408 13.7732C0.391945 13.5173 1.17145 13.0675 1.43778 12.4781C1.01555 12.734 0.534861 13.0054 0.158109 12.9589C-0.00435861 12.951 -0.0822345 12.4704 0.125681 12.385C0.690809 12.0981 1.14552 11.974 1.47681 11.4079C1.80159 10.8728 2.19136 10.5083 2.71102 10.4928C2.71102 10.4928 5.22486 6.5764 6.70586 4.71516C7.11509 4.20332 7.87509 4.37393 7.87509 4.37393L8.00497 3.77678C8.00497 3.77678 13.0847 3.05554 15.4492 3.99393C15.3907 2.27227 16.0403 0 18.2813 0C19.4376 0 21.1396 1.21751 21.3669 2.69881C21.4384 3.15637 21.2176 3.45882 21.1006 4.0327C20.8992 4.90905 21.1786 5.87073 21.0939 6.17313C21.0289 6.42904 20.7886 6.40578 20.5872 6.74702C20.3664 7.11151 20.1195 7.79397 20.1195 7.79397L19.8143 8.61602L18.2293 8.47643C17.6512 9.96542 16.4624 13.0133 16.0467 16.0222C17.2939 16.1541 22.9257 17.1235 22.9257 17.1235L23.0621 17.6742C23.0621 17.6742 25.4396 18.0153 27.3817 19.1166C27.8169 19.2406 28.9082 19.0467 29.6228 19.4423C29.6747 19.4036 29.7917 19.2641 29.8371 19.2252C32.3704 20.1559 34.4621 21.7379 36.9111 22.4437C36.9111 22.4437 38.0478 22.7771 38.4376 22.8702C39.3405 23.0796 39.9186 23.1261 40.3928 23.1726C41.1788 23.2423 41.6141 23.2268 42.1857 23.2657C42.5884 23.2967 43.0821 23.2192 43.2444 23.9249" fill="#D10214"/>
</svg>
