<svg width="50" height="50" viewBox="0 0 50 50" fill="none" xmlns="http://www.w3.org/2000/svg">
<path fill-rule="evenodd" clip-rule="evenodd" d="M17.6417 8.32366C14.7623 8.91754 11.6992 10.2202 11.6992 10.2202C13.2159 8.13382 16.2945 5.57783 16.2945 5.57783C15.4474 3.97043 14.6974 1.59054 14.6974 1.59054C14.6974 1.59054 18.2576 1.78788 21.0443 2.70149C21.0443 2.70149 25.7786 0.0805576 30.6842 0C30.6842 0 27.1086 2.08513 25.5894 4.02663C25.9926 4.24083 28.8522 5.1051 31.0793 6.43087C31.0793 6.43087 27.0529 6.54577 23.358 7.0566C23.358 7.0566 22.057 8.91004 20.9571 13.1284C20.9565 13.1284 19.062 11.0208 17.6417 8.32366V8.32366Z" fill="white"/>
<path fill-rule="evenodd" clip-rule="evenodd" d="M36.7696 11.8167C34.3316 9.07772 31.0781 6.43118 31.0781 6.43118C34.0707 6.47427 38.512 8.25778 38.512 8.25778C39.3801 6.60042 39.9878 4.31982 39.9878 4.31982C39.9878 4.31982 41.6869 7.22427 42.4586 10.436C42.4586 10.436 45.986 12.5692 48.6478 16.1393C48.6478 16.1393 45.8704 15.5542 43.8256 15.5642C43.8195 16.025 44.5756 19.8144 44.4112 22.4197C44.4112 22.4197 42.147 18.7034 40.0225 15.6079C40.0225 15.6079 36.6076 15.6703 33.0196 16.6608C33.0202 16.6608 35.0297 14.3165 36.7696 11.8167V11.8167ZM40.6766 29.6699C42.4746 26.6081 44.4118 22.4203 44.4118 22.4203C45.006 25.2211 45.0592 28.7944 45.0592 28.7944C46.8429 28.4147 50.0006 26.8847 50.0006 26.8847C50.0006 26.8847 48.594 30.669 45.4406 33.571C45.4406 33.571 45.7597 35.8385 45.7968 38.8303C45.7968 38.8303 43.5666 37.8268 41.7172 36.7046C41.3234 36.9363 39.0882 38.4719 35.3122 39.2612C35.3122 39.2612 36.9112 36.7383 38.2337 34.2741C38.2337 34.2741 35.601 32.5225 33.5155 29.6518C33.5155 29.6511 37.5703 30.1682 40.6766 29.6699V29.6699Z" fill="white"/>
<path fill-rule="evenodd" clip-rule="evenodd" d="M27.9585 23.4215C30.7167 26.8724 33.5158 29.6513 33.5158 29.6513C28.9428 28.965 25.2299 27.6699 25.2299 27.6699C23.3725 30.6773 21.3457 34.1738 21.3457 34.1738C21.3457 34.1738 20.2124 30.3807 20.0207 26.0756C20.0207 26.0756 17.7237 25.2637 13.4902 23.5802C13.4902 23.5802 16.4104 21.7492 19.9446 20.7506C19.7381 20.3391 20.2798 15.2209 20.9574 13.1289C20.9574 13.1289 23.0182 16.503 24.6963 18.9834C24.6963 18.9834 27.9807 17.8581 33.0218 16.6603C33.0211 16.6603 30.2629 20.1955 27.9585 23.4215V23.4215ZM2.84976 36.4744C2.57205 35.9467 2.31323 35.4091 2.07379 34.8626C2.12202 33.0322 2.28402 30.6748 2.74774 28.8464C2.74774 28.8464 1.41901 27.9153 0.0451373 26.705C0.0296797 26.4946 0.0117478 26.2823 0 26.0693C0.788956 25.7721 2.46394 25.1744 3.92685 24.8322C4.09441 24.402 5.00517 21.4376 6.76548 19.3924C6.76548 19.3924 6.8842 21.4076 7.36277 24.0904C7.36277 24.0904 10.1414 23.4546 13.4895 23.5789C13.4895 23.5789 10.3869 26.0468 8.43305 28.5541C9.14162 31.4448 10.5674 34.2194 10.5674 34.2194C8.43676 33.0016 6.18304 31.3886 6.18304 31.3886C5.39161 32.3391 3.80072 34.9032 2.84976 36.4744V36.4744ZM20.5747 49.6002C20.2298 49.5375 19.8866 49.4661 19.5452 49.386C18.3822 48.1265 16.6083 46.0701 15.2536 43.9088C15.2536 43.9088 10.2564 43.5016 6.73518 41.9442C6.73518 41.9442 9.6474 41.3915 12.8453 39.726C12.6388 39.3145 11.4195 37.0439 10.5668 34.2206C10.5668 34.2206 13.6212 36.7129 15.8842 38.1717C15.8842 38.1717 18.76 36.5006 21.3451 34.1738C21.3451 34.1738 20.6897 37.3898 20.3267 41.063C21.9969 42.0264 23.681 42.9651 25.3783 43.8788C22.7709 44.2622 20.2043 44.1817 20.2043 44.1817C20.1029 46.2212 20.3744 48.365 20.5747 49.6002V49.6002ZM42.3149 43.042C42.3149 43.042 38.8684 43.9618 35.5049 44.0892C35.5049 44.0892 35.4795 41.7718 35.3126 39.2608C35.3126 39.2608 33.5263 41.8211 31.1947 44.2834C28.4414 44.2435 25.3783 43.8794 25.3783 43.8794C26.4287 44.9591 27.5093 46.0085 28.6188 47.0261C26.545 48.8065 24.6283 49.9962 24.6283 49.9962C24.9003 49.9999 25.1773 50.0018 25.4512 49.998C31.9972 49.89 37.9132 47.2584 42.3149 43.042V43.042Z" fill="white"/>
<path d="M4.29522 16.2669C2.14599 18.1504 0.304688 20.4697 0.304688 20.4697C1.34777 14.1618 4.70639 8.62209 9.47846 4.80029C9.47846 4.80029 8.30245 7.58796 7.78184 10.1858C7.78184 10.1858 9.45682 10.0753 11.7013 10.2195C11.7013 10.2195 8.99495 12.0336 7.03121 13.7871C6.78018 17.2105 6.7672 19.3925 6.7672 19.3925C5.01369 17.6071 4.29522 16.2669 4.29522 16.2669Z" fill="white"/>
</svg>
