<svg width="50" height="50" viewBox="0 0 50 50" fill="none" xmlns="http://www.w3.org/2000/svg">
<path d="M39.7975 25.0001C39.7975 16.9556 33.2056 10.2725 24.9966 10.2725C16.9122 10.2725 10.3203 16.8317 10.3203 25.0001C10.3203 33.0446 16.9122 39.6038 25.1212 39.6038C28.3549 39.6038 31.3399 38.6138 33.703 36.8812L29.5985 32.797C28.2304 33.5395 26.7378 34.0346 25.1209 34.0346C20.1459 34.0346 16.0414 30.0744 16.0414 25.0001C16.0414 20.0498 20.0214 15.9656 25.1209 15.9656C29.2254 15.9656 32.7077 18.8121 33.8272 22.5248H19.3998L24.0016 27.2278H39.5486C39.7974 26.4851 39.7975 25.7426 39.7975 25.0001Z" fill="white"/>
<path d="M36.9394 40.0983C33.7057 42.6973 29.6012 44.1825 25.1238 44.1825C14.4275 44.1825 5.84567 35.6431 5.84567 24.9997C5.84567 20.5443 7.33828 16.4603 9.95016 13.2425L5.72139 9.03467C2.11452 13.3662 0 18.9356 0 25C0 38.7375 11.194 49.9998 25.1238 49.9998C31.2183 49.9998 36.8152 47.8957 41.1685 44.3067L36.9394 40.0983Z" fill="white"/>
<path d="M13.1826 9.90096C16.4164 7.30199 20.5209 5.81676 24.9982 5.81676C35.6946 5.81676 44.2767 14.3561 44.2767 24.9996C44.2767 29.455 42.784 33.539 40.1722 36.7568L44.2767 40.841C47.8835 36.5094 49.9978 30.9403 49.9978 24.8757C50.1223 11.1383 38.9284 0 25.1225 0C19.028 0 13.4312 2.10406 9.07812 5.69309L13.1826 9.90096Z" fill="white"/>
</svg>
