<svg width="50" height="50" viewBox="0 0 50 50" fill="none" xmlns="http://www.w3.org/2000/svg">
<path d="M39.7727 26.5932C37.5207 31.3941 34.8967 35.9747 31.9008 40.291C27.7066 40.6213 23.5124 40.6654 19.3182 40.4011L14.0909 49.3421C22.1074 50.1569 29.3802 50.3551 36.8388 49.1218C42.1901 42.1188 46.3223 34.9176 50 26.6593C47.1488 19.5462 43.2438 13.0496 38.9256 6.97155L33.719 15.8465C35.9711 19.2379 37.9959 22.8495 39.7727 26.5932ZM16.281 34.0587C14.0289 30.6233 12.0041 27.0337 10.186 23.3119C12.4174 18.5111 15.062 13.9305 18.0785 9.6142C22.2727 9.28387 26.4669 9.23983 30.6612 9.50409L35.9091 0.56312C28.3471 -0.251698 20.7231 -0.185632 13.1612 0.783341C7.89256 7.65424 3.47107 15.2078 0 23.2899C2.91322 30.381 6.57025 36.5913 11.0744 42.9336L16.281 34.0587Z" fill="#CDFB0A"/>
<path d="M24.6675 32.2849C28.4072 32.2849 31.4443 29.0476 31.4443 25.0616C31.4237 21.0756 28.4072 17.8384 24.6675 17.8384C20.9278 17.8384 17.8906 21.0756 17.8906 25.0616C17.8906 29.0476 20.9278 32.2849 24.6675 32.2849Z" fill="white"/>
</svg>
