<svg width="40" height="50" viewBox="0 0 40 50" fill="none" xmlns="http://www.w3.org/2000/svg">
<path d="M35.0632 22.8774C33.9761 23.7731 33.0545 24.2724 33.0545 24.2724L33.0671 27.1115C33.8441 27.962 34.6108 28.6666 35.1847 29.9506C36.2739 28.0277 36.0644 25.2009 35.0632 22.8774ZM34.1793 32.1714C34.1793 32.1714 33.9573 31.0004 33.0126 29.9075L30.8573 29.9589C30.8573 29.9589 27.9521 32.4077 26.1801 32.4652C26.1801 32.4652 27.1561 34.2463 27.6505 35.177C28.6244 34.9674 30.3399 34.2135 31.0311 33.4246C31.0311 33.4246 31.4877 34.8688 31.4019 36.5739C32.3717 36.0234 33.708 34.5278 34.1793 32.1714ZM31.4019 27.0437L31.3978 24.2149C31.3978 24.2149 30.1097 23.8102 28.7356 22.7645C25.9749 23.1733 22.632 25.8974 22.632 25.8974C22.632 25.8974 23.761 27.999 24.9968 30.267C27.1689 30.5649 30.3692 27.8737 31.4019 27.0437ZM38.7645 38.8235L36.9883 36.8944C36.4814 42.1084 33.8778 46.5356 29.0959 49.6233L28.3649 46.8108C24.3056 49.687 17.339 51.5523 11.3547 48.2325C12.0983 44.5141 12.7581 40.7464 11.3422 36.235C8.02854 41.2682 5.09612 43.2404 5.09612 43.2404C2.85701 39.5528 3.05809 32.155 3.72626 29.9774L0 31.1093C0 28.6235 1.82438 23.35 4.46775 20.3876L2.14066 20.0219H2.13836C3.71977 16.852 6.08037 14.1197 8.9688 12.0674L8.97283 12.0651C8.10568 13.4086 8.09311 16.7244 10.6338 17.9858C9.55513 16.1307 9.42527 13.838 10.5522 12.6506C11.679 11.4529 13.5746 11.8637 14.7853 12.7923C14.425 11.7569 13.3694 10.4544 11.788 10.3661H11.7857C14.7725 8.8582 18.1637 8.00974 21.7517 8.00974C22.4219 8.00974 23.0901 8.0385 23.7436 8.09602C24.7867 8.5069 26.3179 9.94906 27.0321 10.8468C27.0321 10.8468 27.0824 9.78882 26.4833 8.51101C30.3688 9.43958 32.2225 10.9906 32.9996 11.7384C33.1588 13.386 33.6615 14.3742 34.3255 15.9396C33.0666 14.557 29.9038 12.326 28.3936 11.7918C28.3936 11.7918 28.27 13.2196 27.7506 13.9058C24.7427 11.7775 23.2661 11.2413 23.2661 11.2413C19.965 11.7055 17.8411 12.9546 16.687 13.9366L17.6924 14.7768C15.7025 15.3767 14.4102 17.0531 14.4102 17.0531C14.4248 17.0839 16.1885 17.3304 16.1885 17.3304C16.1885 17.3304 16.0083 19.3622 18.6014 20.6359C20.8238 21.7268 24.018 20.3729 27.0258 21.5562C25.0486 19.317 23.6808 18.3165 23.6808 18.3165C23.6808 18.3165 22.8953 18.1563 22.3424 18.1604C21.6511 18.1644 20.6206 18.298 19.4916 17.8666C18.9512 17.6591 18.3208 17.2934 17.8264 16.9894C17.8264 16.9894 19.2151 15.5904 21.2448 15.2822C21.2448 15.2822 23.0755 15.7876 24.5249 16.8394C25.4884 15.9191 26.4938 15.9478 26.4938 15.9478C26.4938 15.9478 25.4968 16.86 25.7984 17.9652C27.2458 19.2307 28.8167 21.0426 28.8167 21.0426C30.417 20.1839 33.8961 20.3811 34.6103 21.1947C33.7055 20.0422 32.4005 19.0807 31.391 18.259C31.2674 17.8276 30.1656 16.3238 29.9792 16.1841C29.9792 16.1841 31.0265 16.5004 31.9628 17.3242C32.2309 16.9483 32.7336 16.5662 33.4185 16.3977C34.1223 16.9771 34.248 17.8666 34.2291 18.0145C33.9128 18.3864 33.5986 18.5384 33.5986 18.5384L35.2953 20.3401L35.4649 19.0479C39.3734 24.5227 41.5036 30.8584 38.7639 38.8232L38.7645 38.8235ZM7.8981 4.17447C10.1519 5.18728 11.5992 6.46509 11.8631 6.66026C11.7438 6.08915 11.2997 3.3404 11.0442 1.63322C12.3575 2.52687 15.4051 4.60178 16.4084 5.27562C16.8168 4.04094 18.2328 0.00821744 18.2328 0.00821744C18.2328 0.00821744 20.7924 4.07176 21.2301 4.73121C21.7642 4.18269 24.8223 0.844346 25.6141 0C25.7461 1.92083 25.9262 4.66752 25.9723 5.08045C26.1252 4.87707 27.296 3.26644 29.2587 1.78319C28.4083 3.42668 28.0019 5.69471 27.8218 7.51693C25.8906 6.98896 23.8526 6.70546 21.7538 6.70546C17.7217 6.70546 13.9347 7.74497 10.6609 9.5713C10.066 7.8107 9.1339 5.62075 7.8981 4.17447Z" fill="white"/>
</svg>
