<svg width="50" height="50" viewBox="0 0 50 50" fill="none" xmlns="http://www.w3.org/2000/svg">
<path d="M24.5406 17.1099C19.9634 17.1099 16.2461 20.7894 16.2461 25.3311C16.2461 29.8727 19.9544 33.5612 24.5316 33.5612C29.1088 33.5612 32.8261 29.8816 32.8261 25.34C32.8261 20.7894 29.1178 17.1099 24.5406 17.1099Z" fill="white"/>
<path d="M7.01622 10.8176C6.94456 10.9598 6.99831 11.1286 7.13267 11.1997L15.9198 16.2658L15.9377 16.2747C16.0363 16.328 16.1527 16.3191 16.2333 16.2569C16.2602 16.2391 16.2871 16.2125 16.305 16.1858C16.3139 16.1769 16.3229 16.1591 16.3319 16.1413C18.0248 13.1639 20.9718 11.102 24.3666 10.5065C24.3756 10.5065 24.3935 10.5065 24.4024 10.4976C24.4383 10.4887 24.4741 10.4709 24.501 10.4532C24.5905 10.3909 24.6353 10.2843 24.6174 10.1776V10.1599L22.7543 0.24998V0.232204C22.7453 0.187765 22.7274 0.152214 22.7005 0.116663C22.6378 0.0366726 22.5393 -0.00776631 22.4318 0.00112148L22.4049 0.0100093C15.9288 1.1832 10.2857 5.12938 7.01622 10.8176Z" fill="#901480"/>
<path d="M1.99936 29.962C2.04414 30.0598 2.13372 30.122 2.23225 30.1309C2.27703 30.1309 2.33078 30.1309 2.36661 30.1042L11.8435 26.478L11.8614 26.4691C11.9599 26.4247 12.0316 26.3358 12.0316 26.2292C12.0316 26.1936 12.0316 26.1581 12.0226 26.1314C12.0226 26.1136 12.0137 26.1047 12.0047 26.087C10.7238 22.914 10.9477 19.3411 12.6049 16.3459C12.6138 16.3371 12.6138 16.3282 12.6228 16.3193C12.6407 16.2837 12.6496 16.2482 12.6496 16.2126C12.6586 16.106 12.6049 15.9993 12.5063 15.946L12.4884 15.9371L3.54002 11.1732L3.52211 11.1644C3.48628 11.1466 3.44149 11.1377 3.40566 11.1377C3.30713 11.1377 3.2086 11.1821 3.15485 11.271C3.15485 11.2799 3.1459 11.2888 3.1459 11.2888C0.00186938 17.0303 -0.419128 23.8739 1.99936 29.962Z" fill="#004AD0"/>
<path d="M14.0483 45.6932C14.1468 45.7199 14.2543 45.6844 14.3259 45.6133C14.3618 45.5777 14.3797 45.5333 14.3976 45.4888L17.4162 35.8634L17.4252 35.8456C17.452 35.7389 17.4252 35.6323 17.3446 35.5612C17.3177 35.5345 17.2908 35.5167 17.255 35.5078C17.2371 35.499 17.2281 35.499 17.2102 35.4901C13.9139 34.5124 11.2267 32.1216 9.89205 28.9753C9.89205 28.9664 9.88309 28.9575 9.88309 28.9398C9.86517 28.9042 9.84726 28.8776 9.82039 28.8509C9.73977 28.7798 9.62332 28.762 9.52479 28.7976L9.50688 28.8064L0.182282 32.806L0.164366 32.8148C0.128537 32.8326 0.0927068 32.8593 0.0658348 32.8859C0.00313336 32.9659 -0.0147792 33.0726 0.0120929 33.1615C0.0120929 33.1704 0.0210481 33.1792 0.0210481 33.1792C2.60076 39.214 7.73333 43.7913 14.0483 45.6932Z" fill="#0090FF"/>
<path d="M33.852 46.155C33.9326 46.0928 33.9774 45.9951 33.9684 45.8884C33.9594 45.844 33.9415 45.7995 33.9147 45.7551L28.2536 37.3828L28.2357 37.365C28.173 37.2761 28.0655 37.2317 27.958 37.2495C27.9222 37.2584 27.8953 37.2672 27.8595 37.285C27.8416 37.2939 27.8326 37.3028 27.8237 37.3117C24.9842 39.2492 21.4281 39.8269 18.1139 38.8848C18.1049 38.8759 18.096 38.8759 18.0781 38.8759C18.0422 38.867 18.0064 38.867 17.9706 38.8759C17.8631 38.8937 17.7735 38.9737 17.7466 39.0715L17.7377 39.0892L15.0326 48.8036V48.8214C14.9967 48.9636 15.0684 49.1058 15.2117 49.1591L15.2386 49.168C21.5893 50.9456 28.4059 49.8435 33.852 46.155Z" fill="#00AA00"/>
<path d="M46.7488 31.1437C46.7488 30.9837 46.6324 30.8592 46.4712 30.8504L36.3494 30.0682H36.3314C36.224 30.0593 36.1254 30.1216 36.0717 30.2104C36.0538 30.2371 36.0448 30.2726 36.0448 30.3082C36.0448 30.326 36.0448 30.3437 36.0448 30.3526C35.8209 33.7655 34.0652 36.8941 31.2705 38.8849C31.2616 38.8938 31.2526 38.8938 31.2437 38.9027C31.2168 38.9294 31.1899 38.956 31.172 38.9827C31.1183 39.0804 31.1272 39.196 31.1899 39.2849L31.1989 39.3026L37.2003 47.435L37.2093 47.4527C37.2361 47.4883 37.263 47.515 37.3078 47.5327C37.3974 47.5772 37.5049 47.5772 37.5944 47.5238L37.6123 47.5061C42.942 43.6665 46.292 37.6762 46.7488 31.1437Z" fill="#FFE500"/>
<path d="M42.9247 11.7508C42.8441 11.6797 42.7366 11.6619 42.6381 11.6975C42.5933 11.7152 42.5574 11.7419 42.5216 11.7775L35.5349 19.0921L35.517 19.1099C35.4453 19.1899 35.4274 19.3054 35.4632 19.4032C35.4722 19.4387 35.4901 19.4654 35.517 19.4921C35.5259 19.5009 35.5438 19.5187 35.5528 19.5276C38.0788 21.8473 39.4313 25.1714 39.2253 28.5843C39.2253 28.5932 39.2253 28.6109 39.2253 28.6198C39.2253 28.6554 39.2343 28.6909 39.2432 28.7265C39.288 28.8242 39.3776 28.8953 39.4851 28.9042H39.503L49.6517 29.3931H49.6696C49.7144 29.3931 49.7502 29.3842 49.795 29.3664C49.8846 29.3308 49.9562 29.242 49.9652 29.1442C49.9652 29.1353 49.9652 29.1264 49.9652 29.1175C50.3235 22.585 47.7438 16.2302 42.9247 11.7508Z" fill="#FF7D00"/>
<path d="M25.1658 2.73832C25.0136 2.76498 24.915 2.91608 24.9419 3.06717L26.4288 13.0393V13.057C26.4557 13.1992 26.5811 13.297 26.7334 13.2881C26.7513 13.2881 26.7692 13.2881 26.7782 13.2792C30.182 12.7371 33.6485 13.7325 36.2282 15.9989C36.2371 16.0078 36.2461 16.0167 36.255 16.0256C36.2819 16.0433 36.3177 16.0611 36.3536 16.0789C36.4611 16.1056 36.5685 16.0789 36.6402 15.9989L36.6581 15.9811L43.3045 8.36429L43.3134 8.34651C43.3403 8.31096 43.3582 8.27541 43.3672 8.23986C43.394 8.1421 43.3672 8.03544 43.2955 7.96434L43.2776 7.94656C38.3152 3.64487 31.6868 1.734 25.1658 2.73832Z" fill="#FF0000"/>
<path d="M24.5348 16.9946C19.8949 16.9946 16.1328 20.7275 16.1328 25.3403C16.1328 29.9441 19.8949 33.677 24.5438 33.677C29.1837 33.677 32.9458 29.9441 32.9458 25.3403C32.9368 20.7275 29.1837 17.0035 24.5348 16.9946ZM30.6437 30.033C30.7691 29.6953 30.8139 29.2953 30.8497 28.9931C30.6795 29.1531 30.4914 29.3042 30.3033 29.4464C29.7659 29.8375 29.1568 30.113 28.5029 30.2641L26.8816 28.5043L26.8637 28.5221L28.0461 30.5841C27.7057 31.1618 27.2489 31.6684 26.6935 32.0505C26.5054 32.1928 26.2994 32.3172 26.0934 32.4238C26.3979 32.4772 26.7831 32.566 27.1503 32.5483C25.4664 33.1437 23.6301 33.1437 21.9461 32.5483C22.3134 32.566 22.6985 32.4772 23.0031 32.4238C22.7971 32.3172 22.5911 32.1839 22.403 32.0505C21.8566 31.6595 21.3908 31.1618 21.0504 30.5841L22.2328 28.5132L22.2148 28.4954L20.5846 30.2552C19.9307 30.113 19.3216 29.8375 18.7842 29.4464C18.5961 29.3042 18.408 29.1531 18.2378 28.9931C18.2826 29.3042 18.3184 29.6953 18.4528 30.0419C17.3958 28.6998 16.8225 27.0378 16.8225 25.3403C16.8225 25.2514 16.8225 25.1714 16.8315 25.0914C16.9211 25.4469 17.136 25.8113 17.2883 26.0868C17.3331 25.8558 17.3868 25.6247 17.4585 25.4025C17.6645 24.7626 18.0049 24.1671 18.4528 23.6694L20.7817 24.1404L20.7906 24.1137L18.614 23.1361C18.5513 22.4784 18.6319 21.8118 18.8379 21.1897C18.9096 20.9675 18.9992 20.7453 19.1067 20.532C18.8111 20.6742 18.408 20.843 18.1213 21.0919C19.1514 19.5721 20.6831 18.4611 22.4657 17.9634C22.1253 18.1589 21.8386 18.4878 21.6057 18.7277C21.8386 18.6922 22.0805 18.6833 22.3134 18.6833C22.9852 18.6744 23.657 18.8166 24.2661 19.0833L24.5348 21.4119H24.5617L24.8304 19.0744C25.4485 18.8077 26.1113 18.6744 26.7831 18.6744C27.0249 18.6744 27.2578 18.6922 27.4907 18.7189C27.2578 18.4789 26.9712 18.15 26.6308 17.9545C28.4044 18.4522 29.945 19.5543 30.9662 21.0741C30.6795 20.8253 30.2854 20.6564 29.9898 20.5142C30.0973 20.7275 30.1869 20.9408 30.2586 21.1719C30.4646 21.8029 30.5452 22.4606 30.4825 23.1183L28.3148 24.1049L28.3238 24.1315L30.6527 23.6605C31.1095 24.1582 31.4409 24.7537 31.6469 25.3936C31.7186 25.6158 31.7813 25.8469 31.8171 26.078C31.9694 25.8024 32.1754 25.4469 32.274 25.0914C32.274 25.1714 32.2829 25.2514 32.2829 25.3314C32.274 27.0378 31.7007 28.691 30.6437 30.033Z" fill="black"/>
<path d="M21.1406 24.2377L22.4394 28.1928H26.6404L27.9393 24.2377L24.5444 21.7847L21.1406 24.2377Z" fill="black"/>
</svg>
